<?xml version="1.0" encoding="UTF-8" standalone="no"?>
<svg
   width="265.10757"
   height="265.16693"
   version="1.1"
   id="svg1"
   preserveAspectRatio="none"
   sodipodi:docname="path2-text.svg"
   xmlns:inkscape="http://www.inkscape.org/namespaces/inkscape"
   xmlns:sodipodi="http://sodipodi.sourceforge.net/DTD/sodipodi-0.dtd"
   xmlns="http://www.w3.org/2000/svg"
   xmlns:svg="http://www.w3.org/2000/svg">
  <sodipodi:namedview
     id="namedview1"
     pagecolor="#ffffff"
     bordercolor="#000000"
     borderopacity="0.25"
     inkscape:showpageshadow="2"
     inkscape:pageopacity="0.0"
     inkscape:pagecheckerboard="0"
     inkscape:deskcolor="#d1d1d1"
     inkscape:zoom="0.48407672"
     inkscape:cx="427.61817"
     inkscape:cy="132.21045"
     inkscape:window-width="1800"
     inkscape:window-height="1001"
     inkscape:window-x="0"
     inkscape:window-y="44"
     inkscape:window-maximized="1"
     inkscape:current-layer="svg1" />
  <defs
     id="defs1" />
  <path
     style="fill:#000000;stroke-width:0.540826"
     d="M 120.6002,264.89008 C 105.2696,263.36755 92.56066,260.24731 79.99869,254.92182 43.16371,239.30609 13.91451,206.42242 4.2508805,169.7617 0.63918048,156.06008 -0.33895952,146.75878 0.09658048,130.25785 0.52832048,113.90115 2.6989705,101.24678 7.2639505,88.473712 18.44119,57.199202 36.99568,34.465242 64.61705,18.201572 77.95436,10.348462 93.47687,4.6990517 110.54497,1.4861316 c 8.46315,-1.59311008 27.00906,-1.98370008 37.43218,-0.78834008 24.88624,2.85404018 48.5151,12.39200048 67.46829,27.23408048 6.24531,4.89065 16.77493,15.5635 21.32518,21.61527 5.93881,7.89853 8.66713,12.29015 13.4851,21.70624 11.20329,21.895336 15.4936,41.501028 14.77531,67.519648 -0.32809,11.88447 -1.30727,19.18358 -3.94696,29.42186 -5.57525,21.62406 -15.95241,39.74823 -32.21137,56.25855 -11.82905,12.01192 -23.05161,20.15118 -37.30376,27.05488 -19.97912,9.67781 -38.56481,13.86164 -60.64175,13.65105 -4.63356,-0.0442 -9.2807,-0.16538 -10.32699,-0.26929 z m 24.47292,-21.17806 c 7.51422,-0.9005 15.59653,-2.65156 22.54206,-4.88382 6.86903,-2.20767 19.68261,-8.24424 24.73042,-11.6507 l 2.98939,-2.01735 0.14082,-27.57945 0.14082,-27.57944 h -5.16844 -5.16843 v 23.6901 23.69011 l -9.83942,-0.14668 -9.83943,-0.14667 0.0852,-8.07203 c 0.0468,-4.43962 -0.0871,-15.03417 -0.2977,-23.54344 l -0.38288,-15.47139 h -6.98394 -6.98394 l 0.007,6.86122 0.007,6.86123 1.94177,1.24571 c 2.5637,1.64471 4.24323,5.33142 3.88045,8.51802 -0.29607,2.60071 -2.4635,5.83907 -4.53288,6.77259 -1.27087,0.5733 -1.30282,0.74836 -1.30282,7.13787 v 6.55015 l 2.03822,1.30097 c 2.80094,1.78779 4.05317,4.36264 3.7972,7.8079 -0.25426,3.42243 -1.95652,5.91307 -4.96635,7.26641 -2.95223,1.32744 -5.0231,1.27915 -7.95124,-0.18542 -6.12266,-3.0624 -6.69918,-10.89832 -1.10321,-14.99457 l 1.66307,-1.21737 -0.007,-6.49096 -0.007,-6.49096 -1.80916,-1.15964 c -4.84204,-3.10367 -4.85492,-11.7934 -0.0219,-14.75077 l 1.84449,-1.12864 v -6.95736 -6.95735 l -24.59455,0.14002 -24.59454,0.14001 -0.14687,10.81853 -0.14689,10.81853 2.10016,1.37603 c 7.23337,4.73935 3.73939,16.00174 -4.96429,16.00174 -5.45934,0 -9.0736,-3.57089 -9.0694,-8.96056 0.003,-3.17312 1.42761,-5.70865 4.07934,-7.25769 l 1.89741,-1.10839 v -10.97863 -10.97862 h -7.25578 -7.25576 l -0.24032,18.96927 c -0.13219,10.43311 -0.10786,23.68633 0.054,29.45161 l 0.29438,10.48233 5.43526,2.82898 c 2.98939,1.55594 7.94396,3.79722 11.01015,4.98063 5.5368,2.13694 15.33385,4.85921 17.4876,4.85921 1.12219,0 1.12443,-0.0546 1.12443,-27.44492 v -27.44491 h 10.05523 10.05522 v 28.79025 28.79026 h 5.31364 c 2.9225,0 7.38621,-0.24838 9.91935,-0.55195 z M 54.29006,191.25761 v -21.25635 h -7.06585 -7.06583 v -10.49365 -10.49364 h 20.92575 20.92574 v -8.07204 -8.07203 H 51.57242 21.13497 v 4.7862 c 0,23.94859 8.92827,48.07131 24.66427,66.63885 3.45457,4.07619 7.65984,8.21902 8.34289,8.21902 0.0814,0 0.14793,-9.56536 0.14793,-21.25636 z m 170.60197,5.70185 c 5.18579,-7.49638 13.10974,-23.34375 13.10974,-26.21863 0,-0.60386 -2.09448,-0.73957 -11.41405,-0.73957 h -11.41404 l 0.0241,19.23834 0.0241,19.23835 3.20352,-3.40069 c 1.76194,-1.87039 4.67195,-5.52339 6.46669,-8.1178 z m -59.72272,-56.01753 v -8.07203 h -31.52449 -31.52449 v 8.07203 8.07204 h 31.52449 31.52449 z m 77.92373,5.24683 c 2.02502,-16.30116 0.26933,-34.4562 -4.80072,-49.643012 -5.49596,-16.462606 -14.21133,-30.972736 -25.77369,-42.910396 -17.12848,-17.68444 -39.13888,-28.79236 -63.92685,-32.26178 -7.40536,-1.03648 -27.51884,-0.87372 -34.24212,0.2771 -16.63221,2.84689 -30.23972,8.14483 -43.55251,16.95669 -19.15635,12.67976 -33.24753,30.23905 -42.27408,52.67854 -1.76997,4.400046 -5.73909,18.147358 -5.75246,19.924038 -0.004,0.52279 3.50704,0.67267 15.75718,0.67267 H 54.29006 V 88.473712 65.064822 h 10.13148 10.13148 l -0.18324,12.78072 c -0.10078,7.02939 -0.13509,17.563396 -0.0762,23.408888 l 0.10698,10.62818 h 7.3376 7.3376 v -9.09515 -9.095152 l -1.89742,-1.108396 c -2.76556,-1.61554 -4.0773,-4.06319 -4.0773,-7.60808 0,-3.44819 1.23116,-5.84767 3.75898,-7.32608 l 1.67221,-0.97801 v -7.67312 -7.67311 l -1.57811,-0.80798 c -3.85541,-1.97394 -5.35893,-8.25671 -2.91342,-12.17438 2.77402,-4.44395 9.24822,-5.59903 13.47817,-2.40469 2.55652,1.93061 3.70336,4.61347 3.38303,7.91409 -0.28557,2.9425 -1.50682,5.03834 -3.64326,6.25233 l -1.50733,0.85651 -0.31783,7.5676 -0.31783,7.56761 2.15994,1.80705 c 2.71747,2.2735 3.75774,4.24805 3.75774,7.13271 0,2.70215 -1.98121,6.36315 -4.03141,7.4495 l -1.40386,0.743866 v 9.326442 9.32644 h 7.06584 7.06584 V 81.208882 50.535152 h 10.05073 10.05075 l 0.14036,30.5392 0.14038,30.539188 7.20171,0.15016 7.20172,0.15015 v -9.33179 -9.331792 l -1.66307,-1.217366 c -2.50306,-1.83223 -3.76783,-4.25376 -3.77016,-7.21833 -0.003,-3.16245 1.03073,-5.252 3.53031,-7.13962 l 1.90292,-1.43703 v -10.97696 -10.97696 l -2.38909,-2.27803 c -2.7431,-2.61557 -3.71444,-5.26387 -3.03105,-8.2639 1.59562,-7.00462 9.7998,-9.44463 15.39512,-4.57867 4.06264,3.53305 3.14987,11.32487 -1.62488,13.87074 l -1.82779,0.97458 v 11.13458 11.13458 l 1.91924,1.17439 c 2.27895,1.39451 4.05954,4.57646 4.05954,7.25449 0,2.6843 -1.88139,6.05387 -4.10562,7.35319 l -1.87316,1.094226 v 9.364222 9.36421 h 7.06583 7.06583 V 82.554222 53.225832 h 10.05522 10.05523 v 29.34496 29.344948 l 6.58332,-0.1511 6.58332,-0.1511 -0.0873,-7.093 -0.0873,-7.093022 -2.08931,-2.06859 c -2.67741,-2.650856 -3.7086,-5.812596 -2.83612,-8.695826 1.75232,-5.79071 7.5297,-8.128 13.14936,-5.31968 5.97846,2.98761 6.53134,11.2499 0.98479,14.716556 l -2.09031,1.30647 v 7.258082 7.25808 h 9.78346 9.78347 v 10.49365 10.49364 h -19.8387 -19.83869 v 8.07203 8.07204 h 28.73116 28.73116 z"
     id="path2"
     inkscape:export-filename="../../../../../../Code/µgraph/assets/logo-black.svg"
     inkscape:export-xdpi="97.623848"
     inkscape:export-ydpi="97.623848" />
</svg>
